<!DOCTYPE svg PUBLIC "-//W3C//DTD SVG 1.1//EN" "http://www.w3.org/Graphics/SVG/1.1/DTD/svg11.dtd">
<!-- Uploaded to: SVG Repo, www.svgrepo.com, Transformed by: SVG Repo Mixer Tools -->
<svg fill="#972D6B" width="800px" height="800px" viewBox="0 0 32 32" enable-background="new 0 0 32 32" id="Glyph" version="1.1" xml:space="preserve" xmlns="http://www.w3.org/2000/svg" xmlns:xlink="http://www.w3.org/1999/xlink">
<g id="SVGRepo_bgCarrier" stroke-width="0"/>
<g id="SVGRepo_tracerCarrier" stroke-linecap="round" stroke-linejoin="round"/>
<g id="SVGRepo_iconCarrier">
<path d="M16,26c-1.104,0-2-0.896-2-2V8c0-1.104,0.896-2,2-2s2,0.896,2,2v16C18,25.104,17.104,26,16,26z" id="XMLID_298_"/>
<path d="M24,26c-1.104,0-2-0.896-2-2V8c0-1.104,0.896-2,2-2s2,0.896,2,2v16C26,25.104,25.104,26,24,26z" id="XMLID_310_"/>
<path d="M8,26c-1.104,0-2-0.896-2-2V8c0-1.104,0.896-2,2-2s2,0.896,2,2v16C10,25.104,9.104,26,8,26z" id="XMLID_312_"/>
</g>
</svg>